<svg width="26" height="26" viewBox="0 0 26 26" fill="none" xmlns="http://www.w3.org/2000/svg">
<path d="M2.73113 22.7222C2.31437 22.7222 1.91469 22.5926 1.62 22.3618C1.32531 22.1311 1.15975 21.8181 1.15975 21.4918L0.924045 3.45312C0.905124 3.08686 0.978859 2.72129 1.14101 2.37743C1.30316 2.03357 1.55053 1.71821 1.86889 1.44948C2.18725 1.18075 2.57032 0.963952 2.99606 0.811564C3.4218 0.659175 3.88181 0.574199 4.34964 0.561523L19.4191 0.5C19.8876 0.506407 20.3498 0.585016 20.7795 0.731337C21.2091 0.877658 21.5977 1.08882 21.9231 1.35278C22.2486 1.61673 22.5044 1.92829 22.676 2.26967C22.8476 2.61105 22.9316 2.97556 22.9233 3.34238L23.1433 21.381C23.146 21.5966 23.0763 21.809 22.9411 21.9969C22.806 22.1848 22.6102 22.3416 22.3733 22.4515C22.1344 22.5595 21.8635 22.6164 21.5876 22.6164C21.3118 22.6164 21.0408 22.5595 20.8019 22.4515L11.8451 18.5632L3.53253 22.5377C3.28638 22.6453 3.01252 22.7084 2.73113 22.7222ZM11.7822 15.8931C12.0553 15.8935 12.3244 15.9441 12.5679 16.0408L19.9691 19.2523L19.7805 3.31777C19.7805 3.07167 19.5763 2.89941 19.4506 2.91171L4.36536 3.02246C4.23965 3.02246 4.06679 3.18242 4.06679 3.42851L4.25536 19.3015L10.9808 16.0654C11.2251 15.9559 11.5008 15.8966 11.7822 15.8931Z" fill="white" fill-opacity="0.6"/>
</svg>
