<svg width="30" height="27" viewBox="0 0 30 27" fill="none" xmlns="http://www.w3.org/2000/svg">
<path d="M27.2394 2.33419C26.499 1.59381 25.6199 1.00658 24.6525 0.606064C23.6851 0.205552 22.6482 -0.000392622 21.6011 5.6193e-07C20.5541 0.000393746 19.5173 0.207117 18.5502 0.608355C17.5831 1.00959 16.7045 1.59748 15.9646 2.33842L14.9989 3.31593L14.0412 2.34054L14.035 2.33432C13.2949 1.59428 12.4164 1.00725 11.4495 0.606739C10.4826 0.206233 9.44626 9.48527e-05 8.39969 9.48527e-05C7.35312 9.48527e-05 6.3168 0.206233 5.3499 0.606739C4.383 1.00725 3.50445 1.59428 2.76442 2.33432L2.33419 2.76454C0.839633 4.2591 0 6.28616 0 8.39979C0 10.5134 0.839633 12.5405 2.33419 14.035L13.689 25.3897L14.9713 26.7332L15.0018 26.7026L15.035 26.7357L16.2364 25.4682L27.6696 14.0349C29.1619 12.5391 30 10.5125 30 8.3996C30 6.28672 29.1619 4.2601 27.6696 2.76435L27.2394 2.33419ZM26.2605 12.6261L15.0018 23.885L3.74292 12.6261C2.622 11.5051 1.99228 9.98485 1.99228 8.39963C1.99228 6.81442 2.622 5.29413 3.74292 4.17321L4.1732 3.74298C5.29358 2.62262 6.81295 1.99294 8.39739 1.99234C9.98182 1.99175 11.5017 2.62028 12.6229 3.7398L14.9946 6.15474L17.3776 3.74298C17.9326 3.18795 18.5915 2.74768 19.3167 2.4473C20.0419 2.14692 20.8191 1.99231 21.6041 1.99231C22.389 1.99231 23.1662 2.14692 23.8914 2.4473C24.6166 2.74768 25.2755 3.18795 25.8305 3.74298L26.2607 4.17314C27.38 5.29499 28.0085 6.81498 28.0085 8.39965C28.0084 9.98433 27.3798 11.5043 26.2605 12.6261Z" fill="white"/>
</svg>
