<svg width="23" height="25" viewBox="0 0 23 25" fill="none" xmlns="http://www.w3.org/2000/svg">
<path d="M22.9212 23.7371C22.9212 24.0616 22.7871 24.3728 22.5483 24.6023C22.3094 24.8317 21.9855 24.9607 21.6478 24.9607H1.2734C0.935675 24.9607 0.61178 24.8317 0.372971 24.6023C0.134162 24.3728 3.06521e-07 24.0616 3.06521e-07 23.7371V10.8771C-0.000134323 10.6906 0.0440816 10.5066 0.129271 10.3391C0.21446 10.1715 0.338368 10.0249 0.491533 9.91044L10.6787 2.29723C10.9023 2.13015 11.1774 2.03943 11.4606 2.03943C11.7438 2.03943 12.0189 2.13015 12.2425 2.29723L22.4297 9.91044C22.5829 10.0249 22.7068 10.1715 22.792 10.3391C22.8771 10.5066 22.9214 10.6906 22.9212 10.8771V23.7371ZM18.3744 22.5135C19.479 22.5135 20.3744 21.618 20.3744 20.5135V12.4764C20.3744 11.8456 20.0769 11.2518 19.5716 10.8743L12.6578 5.70762C11.9479 5.17706 10.9734 5.17706 10.2634 5.70762L3.34958 10.8743C2.84434 11.2518 2.5468 11.8456 2.5468 12.4764V20.5135C2.5468 21.618 3.44223 22.5135 4.5468 22.5135H18.3744ZM5.09361 18.8427C5.09361 18.1669 5.64143 17.6191 6.3172 17.6191H16.604C17.2798 17.6191 17.8276 18.1669 17.8276 18.8427C17.8276 19.5185 17.2798 20.0663 16.604 20.0663H6.3172C5.64143 20.0663 5.09361 19.5185 5.09361 18.8427Z" fill="white" fill-opacity="0.6"/>
</svg>
