<svg width="26" height="26" viewBox="0 0 26 26" fill="none" xmlns="http://www.w3.org/2000/svg">
<path d="M25.5544 22.9841L21.3395 18.7816C22.6994 17.0491 23.4373 14.9096 23.4345 12.7071C23.4345 10.7456 22.8529 8.82821 21.7631 7.19729C20.6734 5.56637 19.1245 4.29523 17.3123 3.5446C15.5001 2.79397 13.5061 2.59757 11.5823 2.98024C9.65847 3.36291 7.89135 4.30745 6.50437 5.69443C5.11739 7.08141 4.17284 8.84854 3.79017 10.7723C3.40751 12.6961 3.60391 14.6902 4.35454 16.5024C5.10516 18.3146 6.37631 19.8635 8.00723 20.9532C9.63814 22.0429 11.5556 22.6246 13.5171 22.6246C15.7196 22.6273 17.859 21.8894 19.5915 20.5295L23.794 24.7444C23.9093 24.8606 24.0464 24.9529 24.1975 25.0158C24.3485 25.0787 24.5106 25.1111 24.6742 25.1111C24.8379 25.1111 24.9999 25.0787 25.151 25.0158C25.302 24.9529 25.4391 24.8606 25.5544 24.7444C25.6706 24.6292 25.7628 24.4921 25.8257 24.341C25.8887 24.19 25.9211 24.0279 25.9211 23.8643C25.9211 23.7006 25.8887 23.5386 25.8257 23.3875C25.7628 23.2365 25.6706 23.0993 25.5544 22.9841V22.9841ZM6.07898 12.7071C6.07898 11.236 6.51521 9.79794 7.33252 8.57475C8.14983 7.35156 9.3115 6.3982 10.6706 5.83523C12.0298 5.27226 13.5253 5.12496 14.9682 5.41196C16.411 5.69896 17.7364 6.40737 18.7766 7.44761C19.8168 8.48784 20.5252 9.81319 20.8122 11.256C21.0992 12.6989 20.9519 14.1944 20.389 15.5536C19.826 16.9127 18.8726 18.0744 17.6495 18.8917C16.4263 19.709 14.9882 20.1452 13.5171 20.1452C11.5444 20.1452 9.65246 19.3616 8.25755 17.9667C6.86263 16.5717 6.07898 14.6798 6.07898 12.7071Z" fill="white" fill-opacity="0.6"/>
</svg>
