<svg width="30" height="28" viewBox="0 0 30 28" fill="none" xmlns="http://www.w3.org/2000/svg">
<path d="M11 2C11.5523 2 12 2.44772 12 3.00001C12 3.49092 11.6463 3.89922 11.1798 3.9839L11 4.00001H5.00001C3.44061 4.00001 2.1591 5.18978 2.01374 6.71109L2 7.00001V23C2 24.5594 3.18977 25.8409 4.71108 25.9863L5.00001 26H21C22.5594 26 23.8409 24.8102 23.9863 23.2889L24 23V21C24 20.4478 24.4478 20 25 20C25.4909 20 25.8992 20.3538 25.9839 20.8203L26 21V23C26 25.651 23.9369 27.8201 21.3288 27.9894L21 28H5.00001C2.34904 28 0.179923 25.9369 0.0106354 23.3288L0 23V7.00001C0 4.34904 2.06308 2.17993 4.67125 2.01064L5.00001 2H11ZM18.7552 1.15564C18.7552 0.260072 19.6789 -0.249841 20.3878 0.123565L20.536 0.217282L20.6594 0.323302L29.6536 9.16567C30.0268 9.53248 30.0984 10.097 29.8686 10.5397L29.7682 10.6994L29.6538 10.8303L20.6596 19.6754C20.0291 20.2955 19.0304 19.9653 18.8024 19.1823L18.7658 19.0078L18.7552 18.8432V14.6522L18.2398 14.6986C17.742 14.7518 17.2472 14.8294 16.7552 14.9314C13.6877 15.568 10.729 17.1558 7.86523 19.7128C7.08637 20.4084 5.88135 19.7508 6.00945 18.7002C6.98195 10.7243 10.9741 6.23869 17.7772 5.49518L18.306 5.44537L18.7552 5.41515V1.15564ZM20.7552 3.22209V7.28513L18.4526 7.44001C15.3052 7.69211 12.9847 8.78853 11.3264 10.5771C9.98835 12.0202 8.96987 14.0348 8.37349 16.711C11.2045 14.5894 14.1946 13.2598 17.3488 12.796L18.044 12.7081L20.7552 12.4645V16.7764L27.6476 9.99811L20.7552 3.22209Z" fill="white"/>
</svg>
